<svg id="layer_1" data-name="layer 1" xmlns="http://www.w3.org/2000/svg" viewBox="0 0 552.9 329.29"><defs><style>.cls-1{fill:#1a1a1a;}.cls-2{fill:#fff;}</style></defs><path class="cls-1" d="M368.71,61A35.09,35.09,0,0,1,364,79.29,37.59,37.59,0,0,1,351.9,91.94a51.47,51.47,0,0,1-14.45,6.39,67.71,67.71,0,0,1-17.92,2.19c-2.52,0-5,0-7.4-.12l-4-.12q0-.3.14-13.63t.13-25.28q0-6.33,0-16.27T308.13,21l4.95-.06,4.73-.06A81.91,81.91,0,0,1,337.66,23,47.14,47.14,0,0,1,353.14,30a35.29,35.29,0,0,1,11.73,13.22A39.55,39.55,0,0,1,368.71,61Zm-9.2-.06a31.77,31.77,0,0,0-3-14,27.81,27.81,0,0,0-9.56-10.77,38.28,38.28,0,0,0-13.53-5.85,62.21,62.21,0,0,0-13.48-1.66h-2.81q-.11,9.35-.13,15.5T317,54q0,2.61,0,12.16t.08,26.46h2.75a57,57,0,0,0,14.1-1.8,39.57,39.57,0,0,0,11.94-5,31.85,31.85,0,0,0,9.91-10.2A27.8,27.8,0,0,0,359.51,61Z" transform="translate(-29 -18.67)"/><path class="cls-1" d="M396,28.84H386.5V18.67H396Zm-.49,71.32H387c0-.63.08-4.51.13-11.65s.08-13,.08-17.68q0-6.09,0-13.4T387,40.31h8.54q-.11,8.52-.19,15.94t-.08,13.22q0,13.77.14,22.12T395.53,100.16Z" transform="translate(-29 -18.67)"/><path class="cls-1" d="M445.67,82.83a15.53,15.53,0,0,1-1.95,7.81,16.4,16.4,0,0,1-5.09,5.56,24.73,24.73,0,0,1-7.83,3.4,40.45,40.45,0,0,1-10,1.15c-1.77,0-3.6-.09-5.5-.26s-3-.29-3.22-.33l-.32-7.75c.32,0,1.57.15,3.76.33s4.35.26,6.51.26a41.82,41.82,0,0,0,4.87-.35,15.67,15.67,0,0,0,4.92-1.3,9.91,9.91,0,0,0,4-3.19,7.85,7.85,0,0,0,1.3-4.56A6.41,6.41,0,0,0,436,79.67a14.23,14.23,0,0,0-3.14-2.93,37.84,37.84,0,0,0-5.92-3.4,54.24,54.24,0,0,1-6.3-3.46,17.46,17.46,0,0,1-5.55-5.73,15.06,15.06,0,0,1-1.92-7.69,14.43,14.43,0,0,1,2.2-7.87A16.69,16.69,0,0,1,421.24,43a20,20,0,0,1,7.07-2.51,47.8,47.8,0,0,1,7.5-.62c2.2,0,4,0,5.42.12s2.22.12,2.44.12l.59,7.86c-.25,0-1.36-.08-3.33-.23s-4.13-.24-6.48-.24a23.3,23.3,0,0,0-4.74.47,13.62,13.62,0,0,0-3.83,1.36,8.2,8.2,0,0,0-3.33,3.14,7.34,7.34,0,0,0-1,3.54A6.26,6.26,0,0,0,423,60.07a13.43,13.43,0,0,0,3.3,2.89c1.48.95,3.51,2.07,6.07,3.37a54.11,54.11,0,0,1,5.59,3.14,19.83,19.83,0,0,1,5.77,5.79A14.1,14.1,0,0,1,445.67,82.83Z" transform="translate(-29 -18.67)"/><path class="cls-1" d="M497,92.47l-.65,7.93h-3a55.63,55.63,0,0,1-13-1.45,39.48,39.48,0,0,1-10.88-4.29,28.1,28.1,0,0,1-10.22-10.35,28.49,28.49,0,0,1-3.68-14.37,26,26,0,0,1,3.36-13,29.19,29.19,0,0,1,8.76-9.73,36.23,36.23,0,0,1,11.65-5.23,54.6,54.6,0,0,1,14-1.8h2.22l.43,7.92h-1.68a56.62,56.62,0,0,0-10.25.8,35.31,35.31,0,0,0-8.24,2.63,18.71,18.71,0,0,0-8.5,7.45,20.38,20.38,0,0,0-3.13,10.88,21.4,21.4,0,0,0,2.95,11.62A20,20,0,0,0,475,88.69a29.91,29.91,0,0,0,8.55,2.9,54.91,54.91,0,0,0,10.06.88H497Z" transform="translate(-29 -18.67)"/><path class="cls-1" d="M559.3,70.24a38.59,38.59,0,0,1-2.25,13.13,30,30,0,0,1-6.46,10.7,25.32,25.32,0,0,1-7.92,5.68,24,24,0,0,1-9.87,2,24.75,24.75,0,0,1-9.74-1.92A24.26,24.26,0,0,1,515,94.13a29.58,29.58,0,0,1-6.36-10.65,39.78,39.78,0,0,1-2.24-13.36,39.07,39.07,0,0,1,1.92-12.51,29.35,29.35,0,0,1,6-10.26A25,25,0,0,1,522.68,41a24,24,0,0,1,10.17-2.21,24.77,24.77,0,0,1,10.2,2,23.44,23.44,0,0,1,8.13,6.12,31.08,31.08,0,0,1,6.12,10.49A39.38,39.38,0,0,1,559.3,70.24Zm-8.66.41A36,36,0,0,0,549,59.83,22.08,22.08,0,0,0,543.88,51a14.34,14.34,0,0,0-5-3.46,15.43,15.43,0,0,0-6-1.21,15,15,0,0,0-6.49,1.3,16,16,0,0,0-5.19,4.08,22.84,22.84,0,0,0-4.52,8.16A32.41,32.41,0,0,0,515,70.12a35,35,0,0,0,1.68,11.09,21.53,21.53,0,0,0,5.41,8.72A14.46,14.46,0,0,0,527,93.09a16.11,16.11,0,0,0,12.19-.2,15,15,0,0,0,5.17-3.79,23.16,23.16,0,0,0,4.7-8.28A31.86,31.86,0,0,0,550.64,70.65Z" transform="translate(-29 -18.67)"/><path class="cls-1" d="M354.16,223.17l-7.19,0q-6.72-.06-16.61-.06-6.87,0-12.57.06c-3.81,0-7,0-9.66,0q.11-3.42.19-14.84t.08-23.59q0-6.69,0-17.69t-.22-22.76q3.84,0,9.6.05t11.87.06q10.33,0,16.82-.06l7-.05v8.21c-.36,0-2.62,0-6.78-.08s-9.35-.09-15.55-.09q-4.06,0-7.95,0l-6.17,0q0,6.68-.11,13.33t-.1,12.57l5.76,0,5.92,0q9.51,0,17-.09l8-.09v8.16l-8.92-.09q-8.49-.09-15.52-.09l-6.19,0-6,0q0,11.19,0,17.75c0,4.37.07,8,.11,11,2.13,0,4.7.07,7.73.09s6.29,0,9.79,0q8.05,0,13.55-.06l6.14-.06Z" transform="translate(-29 -18.67)"/><path class="cls-1" d="M418.41,165.72q-7.1,17.58-15,37.25t-8.19,20.32h-6.33q-.27-.71-7.9-19.23t-15.52-37.75l7.93-3.93,19,49.26h.11L411,162.5Z" transform="translate(-29 -18.67)"/><path class="cls-1" d="M473.52,191.18h-39.1a28.05,28.05,0,0,0,2.43,11.5,21.11,21.11,0,0,0,7.3,8.67,22.89,22.89,0,0,0,7.14,3.28,36.91,36.91,0,0,0,9.63,1.09c2.05,0,3.94-.06,5.65-.17s2.77-.2,3.16-.24l-1,7.86c-.29,0-1.24.11-2.87.21s-3.53.15-5.73.15a42.15,42.15,0,0,1-15.06-2.45,28.22,28.22,0,0,1-10.52-6.78,31.33,31.33,0,0,1-8.44-21.7A38.08,38.08,0,0,1,428,180.42a33.75,33.75,0,0,1,5.52-10.11,21.33,21.33,0,0,1,7.92-6.21,23.15,23.15,0,0,1,9.82-2.19,22.67,22.67,0,0,1,8.92,1.65,18.09,18.09,0,0,1,6.76,5,25.91,25.91,0,0,1,4.87,9.31A47.4,47.4,0,0,1,473.52,191.18Zm-8.38-6.62q-.87-7.34-4.57-11.5a12.44,12.44,0,0,0-9.76-4.17,13.49,13.49,0,0,0-10.12,4.22,23.27,23.27,0,0,0-5.62,11.45Z" transform="translate(-29 -18.67)"/><path class="cls-1" d="M532.69,223.29h-8.55c0-1.1.08-4.75.14-10.94s.08-10,.08-11.47q0-3.07,0-9.08c0-4,0-6.93-.08-8.78q-.16-6.79-2.38-9.76t-7.68-2.95a21.46,21.46,0,0,0-8.17,2.12,64.72,64.72,0,0,0-9.84,5.45q0,.65-.05,7t-.06,11.65q0,6.87.14,16.56t.13,10.17H487.8c0-.27,0-2.69.11-7.24s.1-11.33.1-20.32q0-6.21,0-14.54t-.19-17.74h8.43l-.05,6.8.05.11a72.86,72.86,0,0,1,12.63-6.59,25.45,25.45,0,0,1,8.41-1.86,14.11,14.11,0,0,1,11.12,4.76q4.18,4.76,4.19,13,0,7.46-.08,12.86c-.06,3.61-.08,6.54-.08,8.78q0,5.39.13,13.46T532.69,223.29Z" transform="translate(-29 -18.67)"/><path class="cls-1" d="M581.9,216l-1,7.51c-.25,0-.87.08-1.87.12s-1.84.06-2.57.06q-11.09,0-16.76-5.06t-5.68-15.52q0-6.57.08-14.08t.08-18.63h-9.08v-6.91h9.57v-14h7.84v14H581.9v6.91H562.54q0,1.24-.08,7.4t-.08,9.1v14.67q0,7.69,3.79,11.09t11.68,3.4l2.32,0Z" transform="translate(-29 -18.67)"/><path class="cls-1" d="M369.41,346.43h-8.92q0-3.56.13-13.1t.08-23.81l-9.62,0-13.26,0-12.84,0-8.14,0q0,16.44.08,24.9t.14,12h-8.93q.06-3.56.17-12.6t.1-30.58q0-6.5-.08-15.84t-.19-20.17h8.93q0,9-.11,17.65t-.11,16.47l7.06,0q6.41,0,14,0l14.06,0,8.76,0q0-7.8-.11-16.44t-.1-17.68h8.92q-.11,8.92-.19,20.64t-.08,19.1q0,17.38.11,26.64T369.41,346.43Z" transform="translate(-29 -18.67)"/><path class="cls-1" d="M436.47,346.43H428.2v-6.86l-.06-.06a73.05,73.05,0,0,1-9.43,5.58A24.37,24.37,0,0,1,407.59,348q-7.45,0-11.68-4.85t-4.22-13.6c0-3.15,0-6.91.08-11.26s.08-7.52.08-9.5q0-5.37-.13-13.27t-.14-8.9h8.55q0,.76-.11,8.51t-.11,12.36c0,2.72,0,6.12.06,10.18s0,6.94,0,8.63q.11,7,2.22,10.23c1.4,2.17,3.68,3.25,6.81,3.25a24.11,24.11,0,0,0,10.58-2.84,50.11,50.11,0,0,0,8.46-5c0-.48,0-2.65.05-6.54s.06-8.72.06-14.52q0-6.21-.14-14.87c-.09-5.77-.13-8.92-.13-9.43h8.54c0,.67,0,2.89-.11,6.65s-.1,10.18-.1,19.25q0,7.63.05,13.4T436.47,346.43Z" transform="translate(-29 -18.67)"/><path class="cls-1" d="M503,316a30.84,30.84,0,0,1-4.36,16.66,26.86,26.86,0,0,1-11.76,10.4,42.47,42.47,0,0,1-11,3.28,91.11,91.11,0,0,1-14.82,1h-4.81q0-4.55.13-16.9t.08-29.73q0-10.64-.05-20.62t-.16-20.39h8.54L464.65,287q11.09.12,17.77,2.16a33.88,33.88,0,0,1,11.11,5.52,23.57,23.57,0,0,1,7,9A29.77,29.77,0,0,1,503,316Zm-8.66.24a19.14,19.14,0,0,0-3.7-12,21,21,0,0,0-9.55-7,37.21,37.21,0,0,0-6.54-1.74,41.08,41.08,0,0,0-7.25-.62h-2.65q0,1.29,0,9.42t0,13.38q0,9.85,0,13.93c0,2.72.05,5.48.05,8.27a56.22,56.22,0,0,0,10.88-1,27.74,27.74,0,0,0,8.49-3,19.42,19.42,0,0,0,7.73-8A25.19,25.19,0,0,0,494.34,316.24Z" transform="translate(-29 -18.67)"/><path class="cls-1" d="M101.05,313.25c97.9-28.17,162.51-92.5,157.49-139.84C253,121.21,159.86,61.66,29,77.49" transform="translate(-29 -18.67)"/><path d="M69.38,373.91" transform="translate(-29 -18.67)"/><circle class="cls-2" cx="64.88" cy="110.74" r="25.5"/><circle class="cls-2" cx="100.88" cy="198.74" r="25.5"/></svg>